<?xml version="1.0" standalone="no"?>
<!DOCTYPE svg PUBLIC "-//W3C//DTD SVG 20010904//EN"
 "http://www.w3.org/TR/2001/REC-SVG-20010904/DTD/svg10.dtd">
<svg version="1.0" xmlns="http://www.w3.org/2000/svg"
 width="1806.000000pt" height="374.000000pt" viewBox="0 0 1806.000000 374.000000"
 preserveAspectRatio="xMidYMid meet">

<g transform="translate(0.000000,374.000000) scale(0.100000,-0.100000)"
fill="#000000" stroke="none">
<path d="M7538 3451 c-205 -66 -271 -189 -287 -538 -10 -210 -21 -246 -83
-276 -33 -16 -46 -17 -107 -8 -154 24 -244 12 -377 -49 -260 -120 -485 -372
-540 -607 -22 -91 -14 -269 16 -373 64 -223 213 -440 367 -533 79 -48 145 -64
326 -78 153 -12 228 -10 720 12 259 12 267 13 267 33 0 12 7 253 16 536 21
650 23 1304 6 1455 -18 153 -39 251 -68 315 -31 68 -49 88 -99 111 -50 23 -84
23 -157 0z m-421 -1407 c34 -21 57 -45 78 -84 27 -50 30 -64 30 -145 0 -73 -4
-98 -22 -131 -65 -122 -202 -168 -321 -108 -58 29 -91 66 -122 137 -49 111
-35 206 40 278 94 92 220 113 317 53z"/>
<path d="M218 3414 c-5 -4 -8 -553 -8 -1219 l0 -1213 403 -7 c706 -12 848 13
1012 180 84 85 170 211 225 327 73 157 84 243 51 403 -83 401 -410 725 -760
752 -62 4 -96 0 -185 -21 -127 -32 -154 -27 -182 32 -14 31 -19 83 -25 312
-13 450 -13 449 -334 458 -104 2 -193 1 -197 -4z m977 -1409 c50 -24 112 -60
139 -81 l48 -37 -4 -57 c-12 -163 -170 -318 -335 -328 -158 -10 -273 102 -273
266 0 76 14 123 53 174 63 83 148 122 242 111 22 -2 81 -24 130 -48z"/>
<path d="M4360 2661 c-19 -4 -48 -15 -65 -24 -64 -35 -75 -50 -89 -122 -33
-160 -41 -316 -41 -820 0 -525 3 -573 46 -657 30 -59 57 -71 172 -76 179 -8
260 24 287 114 6 21 16 146 21 278 9 265 27 392 70 511 42 114 83 166 163 205
58 29 73 32 118 27 126 -15 218 -144 263 -367 9 -44 19 -180 24 -325 5 -137
15 -274 21 -303 25 -115 94 -148 286 -140 123 6 158 22 192 90 31 62 46 289
38 578 -12 415 -52 545 -224 730 -186 201 -361 300 -530 301 -102 0 -167 -21
-242 -79 -152 -116 -148 -115 -221 -30 -80 91 -186 132 -289 109z"/>
<path d="M17025 2659 c-97 -13 -217 -44 -298 -76 -186 -75 -395 -321 -467
-548 -28 -87 -39 -286 -20 -366 81 -360 342 -641 711 -763 290 -96 623 -66
762 70 73 71 96 149 77 255 -31 169 -94 199 -377 178 -222 -16 -411 9 -487 64
-17 12 -17 14 1 36 32 39 132 60 518 106 265 32 361 66 403 143 51 92 67 319
33 454 -57 221 -210 364 -458 429 -91 24 -291 33 -398 18z m256 -540 c53 -18
99 -57 99 -84 0 -96 -298 -149 -445 -79 -77 36 -21 119 110 160 51 16 191 18
236 3z"/>
<path d="M13093 2650 c-307 -56 -594 -275 -703 -537 -43 -103 -60 -189 -60
-311 0 -248 98 -480 280 -662 249 -250 591 -315 932 -178 218 87 361 205 437
358 52 106 78 210 92 365 13 139 7 264 -16 362 -23 93 -93 235 -154 310 -102
124 -271 230 -437 274 -90 23 -288 34 -371 19z m129 -531 c61 -12 175 -67 228
-109 55 -44 84 -117 78 -200 -17 -227 -271 -366 -478 -260 -122 62 -167 229
-108 397 28 78 57 121 101 148 58 35 99 41 179 24z"/>
<path d="M14320 2638 c-34 -18 -52 -38 -72 -77 -35 -66 -35 -95 -2 -207 115
-399 617 -1284 793 -1399 175 -115 341 25 658 555 352 589 465 848 424 973
-15 45 -98 121 -166 153 -103 49 -186 24 -287 -85 -81 -88 -156 -215 -341
-577 l-149 -295 -130 238 c-156 287 -202 363 -283 468 -121 156 -255 257 -358
271 -33 4 -52 0 -87 -18z"/>
<path d="M2859 2629 c-156 -16 -260 -56 -376 -143 -155 -117 -265 -283 -325
-491 -19 -67 -22 -103 -22 -220 1 -122 4 -151 28 -230 40 -133 96 -225 201
-330 130 -131 245 -186 460 -221 139 -23 1025 -34 1025 -13 1 88 -64 1626 -68
1630 -8 8 -617 30 -752 28 -52 -1 -129 -5 -171 -10z m175 -580 c72 -26 192
-105 234 -153 34 -39 42 -87 21 -129 -69 -133 -259 -267 -377 -267 -64 0 -97
16 -145 69 -48 53 -71 132 -65 222 6 82 36 148 95 207 75 75 138 88 237 51z"/>
<path d="M9672 2629 c-183 -21 -293 -72 -425 -198 -180 -172 -270 -348 -284
-556 -17 -256 86 -488 313 -704 175 -168 285 -207 485 -175 249 39 350 27 357
-44 4 -44 -28 -93 -112 -168 -147 -132 -216 -135 -438 -22 -124 63 -175 70
-250 36 -57 -27 -172 -127 -220 -192 -18 -26 -28 -51 -28 -75 0 -30 9 -44 68
-101 106 -103 229 -156 455 -196 121 -21 355 -21 457 0 205 43 393 203 509
435 70 137 91 299 91 675 -1 245 -34 1263 -41 1270 -7 6 -629 26 -749 25 -63
-1 -148 -5 -188 -10z m233 -564 c24 -18 49 -52 69 -94 29 -61 31 -74 31 -171
0 -89 -3 -111 -22 -146 -29 -54 -84 -101 -129 -110 -85 -16 -207 15 -282 72
-111 85 -90 245 50 387 72 73 126 99 195 94 37 -3 62 -11 88 -32z"/>
<path d="M10988 2634 c-11 -11 -9 -1031 2 -1269 17 -351 40 -396 215 -403 124
-6 197 10 239 52 56 56 71 141 101 561 20 284 35 368 74 432 33 53 61 64 176
73 59 5 132 16 163 25 204 60 322 206 283 352 -16 60 -53 99 -118 123 -115 43
-221 52 -688 57 -242 3 -443 2 -447 -3z"/>
</g>
</svg>
