<?xml version="1.0" standalone="no"?>
<!DOCTYPE svg PUBLIC "-//W3C//DTD SVG 20010904//EN"
 "http://www.w3.org/TR/2001/REC-SVG-20010904/DTD/svg10.dtd">
<svg version="1.0" xmlns="http://www.w3.org/2000/svg"
 width="200.000000pt" height="200.000000pt" viewBox="0 0 200.000000 200.000000"
 preserveAspectRatio="xMidYMid meet">

<g transform="translate(0.000000,200.000000) scale(0.100000,-0.100000)"
fill="#000000" stroke="none">
<path d="M847 1149 c-11 -6 -17 -22 -17 -43 0 -29 -3 -33 -23 -29 -28 6 -73
-28 -81 -62 -8 -33 18 -83 47 -90 12 -3 42 -4 67 -2 l45 2 3 106 c3 113 -5
137 -41 118z m-19 -153 c-2 -13 -10 -21 -23 -21 -23 0 -33 34 -14 45 20 13 40
-1 37 -24z"/>
<path d="M170 1036 l0 -114 60 -1 c52 0 62 3 80 26 11 14 20 34 20 44 0 51
-50 97 -91 84 -17 -6 -19 -1 -19 34 0 37 -2 41 -25 41 l-25 0 0 -114z m110
-31 c0 -32 -45 -49 -56 -20 -10 24 14 47 37 34 10 -5 19 -11 19 -14z"/>
<path d="M374 1055 c-32 -32 -32 -84 -1 -113 17 -16 35 -21 80 -21 l58 0 -3
77 -3 77 -54 2 c-44 1 -57 -3 -77 -22z m86 -53 c0 -13 -23 -32 -37 -32 -19 0
-27 28 -13 45 9 11 17 12 31 4 10 -5 19 -13 19 -17z"/>
<path d="M547 1073 c-4 -3 -7 -39 -7 -80 0 -71 1 -73 25 -73 23 0 25 4 25 44
0 26 6 48 15 56 25 20 45 -5 45 -56 0 -40 2 -44 25 -44 24 0 25 3 25 55 0 46
-4 60 -25 80 -26 27 -54 32 -72 14 -8 -8 -13 -8 -17 0 -8 12 -29 15 -39 4z"/>
<path d="M1014 1055 c-32 -32 -32 -78 2 -112 20 -20 32 -24 55 -19 31 6 38 -4
15 -23 -11 -10 -20 -10 -37 -1 -17 10 -24 9 -38 -5 -15 -15 -15 -17 3 -31 11
-8 37 -14 57 -14 29 0 42 6 59 27 18 23 20 38 18 112 l-3 86 -54 2 c-44 1 -57
-2 -77 -22z m74 -49 c5 -24 -10 -38 -31 -30 -20 7 -22 25 -5 42 16 16 32 10
36 -12z"/>
<path d="M1180 999 c0 -77 1 -79 24 -79 23 0 25 4 28 53 3 46 5 52 25 52 28 1
47 19 40 38 -4 10 -22 14 -61 14 l-56 0 0 -78z"/>
<path d="M1337 1060 c-74 -58 -4 -176 83 -140 37 15 50 37 50 84 0 65 -79 99
-133 56z m71 -39 c21 -13 10 -46 -16 -49 -24 -4 -38 18 -28 43 6 17 24 19 44
6z"/>
<path d="M1484 1066 c-7 -17 60 -142 80 -149 18 -7 35 13 75 84 24 43 28 58
19 67 -22 22 -37 13 -61 -34 l-24 -47 -24 44 c-25 45 -55 62 -65 35z"/>
<path d="M1709 1067 c-46 -35 -50 -88 -10 -128 44 -43 128 -38 119 7 -2 15
-10 18 -35 16 -18 -2 -38 0 -45 5 -8 5 6 10 37 13 46 5 50 7 53 33 5 40 -22
67 -67 67 -20 0 -43 -6 -52 -13z m71 -47 c0 -5 -12 -10 -26 -10 -14 0 -23 4
-19 10 3 6 15 10 26 10 10 0 19 -4 19 -10z"/>
</g>
</svg>
