<?xml version="1.0" encoding="UTF-8"?>
<svg version="1.1" xmlns="http://www.w3.org/2000/svg" width="89" height="85">
<path d="M0 0 C10.62741661 6.95236685 16.30978421 15.49575887 20.296875 27.45703125 C21.67515288 40.99381365 20.11927594 52.03591037 12.046875 63.26953125 C4.78001445 71.93326132 -5.18469307 78.61791851 -16.7109375 79.6340332 C-33.0087433 80.10575244 -45.28604459 78.06027725 -57.703125 66.61328125 C-67.06966515 56.76226489 -69.2708769 45.39487926 -69.04296875 32.34375 C-68.52530625 21.16352881 -62.60768208 11.99873845 -54.60546875 4.48828125 C-39.59373612 -8.00825808 -16.89976894 -9.64654441 0 0 Z " fill="#5BB7FC" transform="translate(68.703125,5.54296875)"/>
<path d="M0 0 C1.65 0.33 3.3 0.66 5 1 C5 21.46 5 41.92 5 63 C3.35 63 1.7 63 0 63 C-1.76723811 61.23276189 -1.12762833 58.6968116 -1.12939453 56.30273438 C-1.13254669 55.08477173 -1.13569885 53.86680908 -1.13894653 52.61193848 C-1.13715675 51.27254195 -1.1351058 49.93314576 -1.1328125 48.59375 C-1.1334856 47.2299396 -1.13445567 45.86612932 -1.13571167 44.50231934 C-1.13718838 41.64069479 -1.13503497 38.7791014 -1.13037109 35.91748047 C-1.12467381 32.24181386 -1.12795296 28.56622026 -1.13394356 24.89055634 C-1.13754991 22.07337896 -1.13641025 19.25621902 -1.13381577 16.43904114 C-1.1331467 15.08339937 -1.13397421 13.72775604 -1.13629532 12.37211609 C-1.13882301 10.48049956 -1.13429014 8.58887751 -1.12939453 6.69726562 C-1.12859894 5.61884399 -1.12780334 4.54042236 -1.12698364 3.42932129 C-1 1 -1 1 0 0 Z " fill="#4B86A0" transform="translate(31,12)"/>
<path d="M0 0 C1.98 0 3.96 0 6 0 C7.20516687 2.41033374 7.12686106 3.9258141 7.12939453 6.61743164 C7.13254669 7.57504898 7.13569885 8.53266632 7.13894653 9.51930237 C7.1369223 10.55578415 7.13489807 11.59226593 7.1328125 12.66015625 C7.13376923 13.72036484 7.13472595 14.78057343 7.13571167 15.87290955 C7.13639295 18.11652689 7.13454227 20.3601462 7.13037109 22.60375977 C7.12501686 26.05163972 7.13032058 29.49938971 7.13671875 32.94726562 C7.13605806 35.12239612 7.1347771 37.29752654 7.1328125 39.47265625 C7.13483673 40.51116226 7.13686096 41.54966827 7.13894653 42.61964417 C7.13579437 43.57410934 7.13264221 44.52857452 7.12939453 45.51196289 C7.12820114 46.77865562 7.12820114 46.77865562 7.12698364 48.07093811 C7 50 7 50 6 51 C3.5 51.125 3.5 51.125 1 51 C0 50 0 50 -0.12025452 47.98155212 C-0.11803391 47.09552811 -0.11581329 46.20950409 -0.11352539 45.29663086 C-0.11344986 44.29566879 -0.11337433 43.29470673 -0.11329651 42.26341248 C-0.10813522 41.1748848 -0.10297394 40.08635712 -0.09765625 38.96484375 C-0.0962413 37.85645645 -0.09482635 36.74806915 -0.09336853 35.60609436 C-0.08775033 32.04986931 -0.07519475 28.49370617 -0.0625 24.9375 C-0.05748734 22.53320403 -0.05292403 20.12890708 -0.04882812 17.72460938 C-0.03777499 11.81638496 -0.02101917 5.9081969 0 0 Z " fill="#6FA1B8" transform="translate(38,18)"/>
<path d="M0 0 C3.53571429 0.53571429 3.53571429 0.53571429 5 2 C5.08868299 4.95705321 5.11520296 7.89065056 5.09765625 10.84765625 C5.0962413 11.7340831 5.09482635 12.62050995 5.09336853 13.53379822 C5.08775215 16.37673254 5.07519691 19.21958931 5.0625 22.0625 C5.05748711 23.98502491 5.05292384 25.90755104 5.04882812 27.83007812 C5.03777741 32.55341549 5.02050183 37.27669458 5 42 C2.625 42.625 2.625 42.625 0 43 C-2.63185269 40.36814731 -2.24871862 38.46131131 -2.27789307 34.87854004 C-2.2738446 34.04205933 -2.26979614 33.20557861 -2.265625 32.34375 C-2.26753845 31.48567749 -2.2694519 30.62760498 -2.27142334 29.74353027 C-2.27278544 27.92781278 -2.26908728 26.11208555 -2.26074219 24.29638672 C-2.25004291 21.5111715 -2.26063653 18.72660132 -2.2734375 15.94140625 C-2.27211591 14.17968607 -2.26955353 12.41796629 -2.265625 10.65625 C-2.26967346 9.81976929 -2.27372192 8.98328857 -2.27789307 8.12145996 C-2.22991834 2.22991834 -2.22991834 2.22991834 0 0 Z " fill="#2D769C" transform="translate(23,22)"/>
<path d="M0 0 C2.375 -0.125 2.375 -0.125 5 0 C7 2 7 2 7.24291992 5.05688477 C7.23881104 6.33877686 7.23470215 7.62066895 7.23046875 8.94140625 C7.23001053 9.62428207 7.22955231 10.3071579 7.2290802 11.01072693 C7.22605891 12.45402769 7.21817622 13.89732522 7.20581055 15.34057617 C7.1875433 17.55724553 7.18530093 19.77349758 7.18554688 21.99023438 C7.14742468 32.85257532 7.14742468 32.85257532 6 34 C3.5 34.125 3.5 34.125 1 34 C0 33 0 33 -0.11352539 29.85717773 C-0.11336633 28.46597303 -0.10767506 27.07476239 -0.09765625 25.68359375 C-0.0962413 24.95253922 -0.09482635 24.22148468 -0.09336853 23.46827698 C-0.08775408 21.12464368 -0.07519922 18.78110461 -0.0625 16.4375 C-0.05748686 14.85221492 -0.05292363 13.26692834 -0.04882812 11.68164062 C-0.03777997 7.7877239 -0.02050572 3.89387795 0 0 Z " fill="#92B9CC" transform="translate(47,26)"/>
<path d="M0 0 C3.53571429 0.53571429 3.53571429 0.53571429 5 2 C5.1001491 4.19477691 5.13081219 6.392784 5.1328125 8.58984375 C5.13376923 9.2495668 5.13472595 9.90928986 5.13571167 10.58900452 C5.13639336 11.98699031 5.13453986 13.38497924 5.13037109 14.78295898 C5.12503106 16.92503982 5.13031199 19.06691017 5.13671875 21.20898438 C5.1360578 22.56510463 5.13477629 23.92122476 5.1328125 25.27734375 C5.13168457 26.51734131 5.13055664 27.75733887 5.12939453 29.03491211 C5 32 5 32 4 34 C2.33388095 34.042721 0.66617115 34.04063832 -1 34 C-3.47487711 31.52512289 -2.17337232 25.4591888 -2.18554688 21.99023438 C-2.18546631 21.26408936 -2.18538574 20.53794434 -2.18530273 19.78979492 C-2.18748751 17.57516218 -2.20563531 15.36102877 -2.22460938 13.14648438 C-2.22754356 11.74479338 -2.22952819 10.3431 -2.23046875 8.94140625 C-2.23457764 7.65951416 -2.23868652 6.37762207 -2.24291992 5.05688477 C-2 2 -2 2 0 0 Z " fill="#D4E5EF" transform="translate(66,26)"/>
<path d="M0 0 C1.98 0 3.96 0 6 0 C6 7.26 6 14.52 6 22 C2 23 2 23 0 22 C0 14.74 0 7.48 0 0 Z " fill="#BCD2DB" transform="translate(56,32)"/>
<path d="M0 0 C1.98 0.495 1.98 0.495 4 1 C4 14.2 4 27.4 4 41 C3.34 40.67 2.68 40.34 2 40 C2 32.41 2 24.82 2 17 C-0.05922402 19.05922402 0.58572421 23.21708124 0.4375 26.0625 C0.39431641 26.82111328 0.35113281 27.57972656 0.30664062 28.36132812 C0.20026367 30.24065438 0.09960066 32.12030244 0 34 C-0.33 34 -0.66 34 -1 34 C-1.02465288 29.31860746 -1.04283739 24.63725241 -1.05493164 19.95581055 C-1.05997157 18.36205386 -1.0668035 16.76830181 -1.07543945 15.17456055 C-1.08751999 12.88849747 -1.09323155 10.60249533 -1.09765625 8.31640625 C-1.10281754 7.59973282 -1.10797882 6.88305939 -1.11329651 6.14466858 C-1.11349263 4.42936328 -1.06192007 2.71418734 -1 1 C-0.67 0.67 -0.34 0.34 0 0 Z " fill="#236A87" transform="translate(23,22)"/>
<path d="M0 0 C1.67542976 0.28604898 3.34385343 0.61781233 5 1 C5.05386629 3.12472576 5.09273071 5.24983652 5.125 7.375 C5.14820313 8.55835938 5.17140625 9.74171875 5.1953125 10.9609375 C5 14 5 14 3 16 C0.875 15.625 0.875 15.625 -1 15 C-1.02685412 12.68756208 -1.04632841 10.3750373 -1.0625 8.0625 C-1.07410156 6.77472656 -1.08570313 5.48695312 -1.09765625 4.16015625 C-1 1 -1 1 0 0 Z " fill="#03557A" transform="translate(14,35)"/>
<path d="M0 0 C1.65 0.33 3.3 0.66 5 1 C5 5.29 5 9.58 5 14 C3.68 14.33 2.36 14.66 1 15 C-1 13 -1 13 -1.23046875 10.21484375 C-1.21628906 9.13332031 -1.20210938 8.05179688 -1.1875 6.9375 C-1.18105469 5.85339844 -1.17460938 4.76929688 -1.16796875 3.65234375 C-1 1 -1 1 0 0 Z " fill="#F6FCFC" transform="translate(74,36)"/>
<path d="M0 0 C0.66 0 1.32 0 2 0 C2 7.26 2 14.52 2 22 C4.31 22.66 6.62 23.32 9 24 C8.34 24.66 7.68 25.32 7 26 C5.68 25.34 4.36 24.68 3 24 C2.67 25.65 2.34 27.3 2 29 C-0.97 29 -3.94 29 -7 29 C-6.67 28.34 -6.34 27.68 -6 27 C-4.35 27 -2.7 27 -1 27 C-0.67 18.09 -0.34 9.18 0 0 Z " fill="#64B9F5" transform="translate(54,32)"/>
<path d="M0 0 C0.33 0 0.66 0 1 0 C1 9.57 1 19.14 1 29 C0.01 28.67 -0.98 28.34 -2 28 C-2.89604368 21.95170514 -3.11269443 16.1105424 -3 10 C-2.01 10.495 -2.01 10.495 -1 11 C-1.020625 9.741875 -1.04125 8.48375 -1.0625 7.1875 C-1.10886083 4.35948913 -0.91692961 2.75078884 0 0 Z " fill="#E8EEF1" transform="translate(69,29)"/>
<path d="M0 0 C1.65 0.33 3.3 0.66 5 1 C4.67 2.65 4.34 4.3 4 6 C3.34 5.67 2.68 5.34 2 5 C2 4.34 2 3.68 2 3 C1.01 3 0.02 3 -1 3 C-0.67 2.01 -0.34 1.02 0 0 Z " fill="#4C8BAC" transform="translate(31,12)"/>
<path d="M0 0 C0.33 0 0.66 0 1 0 C1.33 4.95 1.66 9.9 2 15 C0.68 14.34 -0.64 13.68 -2 13 C-1.67 12.67 -1.34 12.34 -1 12 C-0.76572222 9.98405418 -0.58663876 7.961526 -0.4375 5.9375 C-0.35371094 4.83277344 -0.26992188 3.72804687 -0.18359375 2.58984375 C-0.12300781 1.73519531 -0.06242187 0.88054688 0 0 Z " fill="#4FAAEC" transform="translate(19,37)"/>
<path d="M0 0 C0.33 0 0.66 0 1 0 C1.06058594 0.77085938 1.12117188 1.54171875 1.18359375 2.3359375 C1.26738281 3.33882812 1.35117188 4.34171875 1.4375 5.375 C1.55931641 6.87160156 1.55931641 6.87160156 1.68359375 8.3984375 C1.84965626 10.97927613 1.84965626 10.97927613 3 13 C1.68 13.33 0.36 13.66 -1 14 C-0.67 9.38 -0.34 4.76 0 0 Z " fill="#73C1FC" transform="translate(72,38)"/>
<path d="M0 0 C2.0625 0.4375 2.0625 0.4375 4 1 C3.67 2.65 3.34 4.3 3 6 C2.67 5.34 2.34 4.68 2 4 C1.34 4 0.68 4 0 4 C-0.33 3.01 -0.66 2.02 -1 1 C-0.67 0.67 -0.34 0.34 0 0 Z " fill="#D6E7F3" transform="translate(66,26)"/>
</svg>
